<?xml version="1.0" encoding="utf-8"?>
<!-- Generator: Adobe Illustrator 27.2.0, SVG Export Plug-In . SVG Version: 6.00 Build 0)  -->
<svg version="1.1" id="Lager_1" xmlns="http://www.w3.org/2000/svg" xmlns:xlink="http://www.w3.org/1999/xlink" x="0px" y="0px"
	 viewBox="0 0 176.76 220" style="enable-background:new 0 0 176.76 220;" xml:space="preserve">
<style type="text/css">
	.st0{fill:#FFFFFF;}
	.st1{fill:#F8D8B8;}
	.st2{fill:#D64F3D;}
</style>
<path class="st2" d="M88.38,0C40.8,0,1.9,37.8,0.09,84.94H0V220h176.76V84.94h-0.09C174.85,37.8,135.96,0,88.38,0z M32.42,113.58
	V88.72h111.91v24.86H32.42z M144.33,117.36v26.53c-2.41-4.4-5.9-8.21-10.26-11.04c-0.77-0.51-1.6-0.99-2.44-1.43
	c-7.31-3.85-16.24-4.56-24.04-1.97c-4.16,1.38-7.91,3.59-11.15,6.57c-3.64,3.35-6.38,7.51-8.06,12.07
	c-2.3-6.28-6.61-11.73-12.47-15.44c-2.86-1.81-5.96-3.12-9.22-3.9c-5.83-1.41-12.12-1.06-17.77,1c-3.07,1.11-5.93,2.71-8.49,4.73
	c-3.33,2.62-6.03,5.83-8,9.41v-26.53H144.33z M28.64,88.72v24.86H3.78V88.72H28.64z M108,84.94c-0.38-4.02-1.98-7.69-4.41-10.65
	l24.89-24.89c9.05,9.31,14.9,21.75,15.74,35.53H108z M88.38,70.89c8.15,0,14.89,6.15,15.83,14.05H72.55
	C73.49,77.04,80.23,70.89,88.38,70.89z M100.92,71.62c-2.95-2.44-6.63-4.03-10.65-4.41V32.47c13.61,0.46,26.01,5.78,35.49,14.31
	L100.92,71.62z M86.49,67.21c-4.02,0.38-7.69,1.98-10.65,4.41L51,46.78c9.48-8.52,21.87-13.85,35.49-14.31V67.21z M48.28,49.41
	l24.89,24.89c-2.44,2.95-4.03,6.63-4.41,10.65H32.54C33.38,71.16,39.22,58.72,48.28,49.41z M148.12,88.72h24.86v24.86h-24.86V88.72z
	 M88.38,3.78c45.49,0,82.7,36.1,84.51,81.16h-24.87c-1.79-31.35-27.85-56.3-59.63-56.3s-57.84,24.96-59.63,56.3H3.87
	C5.68,39.88,42.89,3.78,88.38,3.78z M3.78,216.22v-98.85h24.86v98.85H3.78z M32.42,158.71c0-8.35,3.77-16.1,10.34-21.26
	c2.25-1.77,4.76-3.17,7.45-4.15c4.96-1.81,10.48-2.11,15.59-0.87c2.86,0.69,5.58,1.84,8.09,3.42c5.76,3.65,9.82,9.19,11.59,15.55
	c-4.34-5.76-11.24-9.48-18.99-9.48c-13.11,0-23.78,10.67-23.78,23.78h3.78c0-11.03,8.97-20,20-20c9.97,0,18.24,7.35,19.74,16.91
	c-3.07-3.58-7.62-5.86-12.7-5.86c-9.24,0-16.75,7.51-16.75,16.75h3.78c0-7.15,5.82-12.97,12.97-12.97c7.14,0,12.95,5.81,12.96,12.94
	v42.74H32.42V158.71z M90.27,216.22V173.5h0c0-7.15,5.82-12.97,12.97-12.97c7.15,0,12.96,5.82,12.96,12.97h3.78
	c0-9.24-7.51-16.75-16.75-16.75c-5.08,0-9.63,2.28-12.7,5.86c1.49-9.56,9.76-16.91,19.74-16.91c11.03,0,20,8.97,20,20h3.78
	c0-13.11-10.67-23.78-23.78-23.78c-7.74,0-14.63,3.72-18.97,9.46c1.35-4.78,4-9.15,7.71-12.56c2.85-2.62,6.13-4.56,9.78-5.77
	c6.84-2.27,14.67-1.65,21.09,1.73c0.74,0.39,1.45,0.81,2.13,1.25c7.72,5.01,12.33,13.49,12.33,22.69v57.5H90.27z M172.97,216.22
	h-24.86v-98.85h24.86V216.22z"/>
</svg>
