<svg xml:space="preserve" style="enable-background:new 0 0 500 215.6;" viewBox="0 0 500 215.6" y="0px" x="0px" xmlns:xlink="http://www.w3.org/1999/xlink" xmlns="http://www.w3.org/2000/svg" id="Lager_1" version="1.1">
<style type="text/css">
	.st0{fill:#D64F3D;}
</style>
<g>
	<path d="M22.5,123.5c-2.1-1.8-8.8-9.6-8.8-33v-53c1.6-0.9,3.3-1.7,5-2.2c2.5-0.8,5-1.2,7.6-1.2
		c5.9,0,10.3,1.6,13.6,4.9c4.8,4.9,7,13.8,6.7,28l-1.2,57l0,0.6h23.1l-1.4-1c-4.2-3.2-8.4-16-8.4-34.3V64.3c0-8-0.7-14.3-2.1-19.7
		l-0.6-1.7c-0.2-0.6-0.4-1.2-0.7-1.9c5.6-4.9,10.8-7.1,16.8-7.1c12.1,0,18.1,9,22.2,33.2l9.6,57.5h23.4l-1.3-1
		c-6.6-5.2-11-14.9-13.6-29.5l-5.3-29.8c-5.1-28-12.8-37.9-29.4-37.9c-8.7,0-16.5,3.7-23.8,11.4C49.7,30,43.1,26.3,33.5,26.3
		c-5,0-10.3,1.4-15.3,4c-1.5,0.8-3,1.7-4.5,2.6v-7L1.5,32.1v34.5l-1.2,58h23.4L22.5,123.5z" class="st0"></path>
	<path d="M168.1,26.3c-26.5,0-48,22-48,49.1c0,27.5,22.8,50.7,49.7,50.7c26.4,0,48-22,48-49.1
		C217.8,49,195.5,26.3,168.1,26.3z M175.8,121.8c-10.8,0-21.4-6.2-29.8-17.5c-7.8-10.6-12.5-24.3-12.5-36.8c0-17.8,9-37,28.7-37
		c23.4,0,42.2,29.7,42.2,54.2C204.4,102.6,195.4,121.8,175.8,121.8z" class="st0"></path>
	<path d="M280.8,93.3V113l-1.9,1c-1.2-2.5-2.8-4.1-4.9-4.7c-5.4-1.7-13.2,2.9-20.8,7.3c-4.4,2.6-8.5,5-12.2,6.3
		c-1.8,0.6-3.4,0.9-4.8,0.9c-1.5,0-2.8-0.4-3.9-1.2c-2.8-2-4.2-6.6-4.2-14V28.8h-11.5V27l0.4-0.1C227.8,23,237.4,11.2,239.4,3
		l0.1-0.4h1.8v23.1h13.9v3.1h-13.9l0,35c0,9.3,0,30.6,0.1,35.6c0.2,9.6,0.9,15.9,3.4,17.1c2.9,1.4,9.2-3.3,19.5-11
		C268.5,102.2,280.8,93.3,280.8,93.3z" class="st0"></path>
	<path d="M412.9,66.5l-1.2,58.1h23.6l-1.2-1c-5.5-4.7-8.8-17-8.8-33V42c4.3-3.9,9.8-7.8,18.4-8c0.1,0,0.2,0,0.3,0
		c11.4,0,17.9,9.9,21.9,33.2l9.6,57.5h23.3l-1.3-1c-6.6-5.2-11-14.9-13.5-29.5l-5.4-29.8c-5.1-28.7-12.3-37.9-29.4-37.9
		c-8.8,0-16.9,3.8-24,11.2V25.9l-21.4,10.7v1.4l0.2,0.2C410.1,43,413.1,52.8,412.9,66.5z" class="st0"></path>
	<path d="M291.7,66.4l-1.2,58.1h23.6l-1.2-1c-5.5-4.7-8.8-17-8.8-33V25.9l-21.4,10.7v1.4l0.2,0.2
		C288.8,43,291.9,52.8,291.7,66.4z" class="st0"></path>
	<path d="M357.6,26.3c-23.1,0-42,22-42,49.1c0,27.5,19.9,50.7,43.5,50.7c23.1,0,42-22,42-49.1
		C401.1,49,381.6,26.3,357.6,26.3z M364,121.9c-19.4,0-35-29.7-35-54.3c0-17.9,7.4-37.1,23.7-37.1c19.4,0,35,29.7,35,54.3
		C387.7,102.7,380.3,121.9,364,121.9z" class="st0"></path>
	<path d="M294.9,19.1c5.4,0,9.5-4.1,9.5-9.5c0-5.4-4.2-9.6-9.5-9.6c-5.3,0-9.7,4.3-9.7,9.6
		C285.2,14.9,289.5,19.1,294.9,19.1z" class="st0"></path>
	<g>
		<g>
			<path d="M49.9,193.2l-3.5-19.6c-3.4-19.2-8.3-25.3-19.8-25.3c-6.1,0-11.7,2.7-16.6,8.1l0-27.4l-9.9,5l0.3,56.7
				L0,213.8h17.3l-1.8-1.5c-3.5-3-5.6-10.9-5.6-21.3v-30.5c3-2.9,7.1-6.3,13-6.3c7.5,0,11.5,6.2,14.1,21.4l6.4,38.2h17.2l-1.9-1.5
				C54.4,208.9,51.5,202.6,49.9,193.2z" class="st0"></path>
			<path d="M166.4,199.8l-0.4-1.2c-8.4-23-13.7-37-15.2-40.3c-2.9-6.7-7.5-10.1-13.9-10.1c-4.1,0-8.9,1.5-11.6,3.6
				l-1.1,0.8l1.8,0.9l0.3-0.1c4.8-1.4,10.9-1.1,13.8,4c0.2,0.3,0.4,0.8,0.7,1.3l-0.9,0.4l-0.2,0.1c-13.2,5.9-21.1,14-25,25.4
				c-2.4,7.6-9.1,20.4-26.2,20.4c-14.3,0-25.1-11-25.1-25.7c0-2.2,0.1-3.8,0.4-5.4h48.6v-0.9c0-14.6-10.4-24.9-25.4-24.9
				c-18.7,0-33.4,14.8-33.4,33.7c0,18.5,14.2,32.9,32.4,32.9c17.5,0,25.1-12.9,27.8-19.7c0.5,4.9,2.4,9.2,5.4,12.5
				c4.2,4.6,10.4,7.1,17.4,7.1c9.3-0.1,15.3-3.3,20.6-10.8l3.3,9.8h14.8l-1.9-1.5C171.2,210.4,169.4,207.3,166.4,199.8z M86.1,151.3
				c8.4,0,14.5,4.2,14.5,9.9c0,6.3-5.7,9.7-16.6,9.7H64.4C67,159.2,75.7,151.3,86.1,151.3z M141.1,208c-10.8-0.1-17.2-7.5-17.2-19.7
				c0-14.9,13.9-25.6,16.7-27.6l0.2-0.2l0.7-0.4c3.4,7.8,9.8,26.5,14.7,40.7C153,205.5,147.3,208.2,141.1,208z" class="st0"></path>
			<path d="M185.7,190.9v-62l-15.1,7.5v1.5l0.3,0.3c3.8,3,5.7,9.3,5.6,18.2l-0.8,57.5h17.3l-1.8-1.5
				C187.8,209.3,185.7,201.3,185.7,190.9z" class="st0"></path>
			<path d="M207.1,133.1H205l-0.2,0.7c-1.3,5.3-7.5,12.9-14.4,15.3l-0.6,0.2v2h7.5V186c0,11.9,1.9,27.8,18,27.8h0.9
				v-2.2l-0.8-0.1c-5.6-0.5-8.4-9.3-8.4-26.9v-33.3h9.2v-3h-9.2V133.1z" class="st0"></path>
			<path d="M280,212.2c-4.2-3.4-7.1-9.6-8.7-19.1l-3.5-19.6c-3.4-19.2-8.3-25.3-19.8-25.3c-6.1,0-11.7,2.7-16.6,8.1
				v-27.7l-14.9,8.5l-0.1,0.1v1.4l0.3,0.3c3.8,3,5.7,9.3,5.6,18.2l-0.8,56.8h17.3l-1.8-1.5c-3.5-3-5.6-11-5.6-21.3v-30.4
				c3-2.9,7.1-6.3,12.9-6.3c7.5,0,11.5,6.2,14.1,21.4l6.4,38.2h17.1L280,212.2z" class="st0"></path>
		</g>
		<g>
			<g>
				<path d="M372.1,191.4v-62.6l-15,7.5l-0.2,0.1v1.5l0.3,0.3c3.8,3.1,5.8,9.4,5.6,18.3l-0.3,15.4
					c-0.2,8.7-3.5,17.2-9.6,23.5c-6.2,6.4-15,10.3-24.9,10.3c-15.2,0-26.2-11.4-26.2-27c0-13.2,7.7-26.7,22.5-26.9
					c11.2-0.2,21.7,9.4,25.7,23.5l1.7,6.2v-26.4l-0.4-0.3c-6.6-4.3-15.5-6.5-25.7-6.4c-19.1,0.3-33,14.6-33,34.1
					c0,18.6,14.3,33.1,32.6,33.1c17.1,0,31.8-11.1,37.1-26.3l-0.3,25l0,0.3h17.5l-1.8-1.5C374.2,209.9,372.1,201.9,372.1,191.4z" class="st0"></path>
				<path d="M441.1,214.5l-1.8-1.5c-2.9-2.5-6-9.5-6-21.5v-43.7l-15,7.5l-0.2,0.1v1.5l0.3,0.3c3.6,2.9,5.5,9.8,5.5,19.4
					l-0.1,25.1c-4.5,5-10.5,8-16.1,8c-7,0-14.1-2.5-14.1-21.3v-40.4l-15,7.5l-0.2,0.1v1.5l0.3,0.3c3.6,2.9,5.5,9.7,5.5,19.4v13.3
					c0,17.8,5.8,25.8,18.9,25.8c7.2,0,15.4-3.7,20.7-9.4l-0.1,8.3H441.1z" class="st0"></path>
			</g>
			<path d="M471.8,148.3c-5.5,0-13.1,2.9-18,9.3v-32.1l-15,7.5l-0.2,0.1v1.5l0.3,0.3c3.8,3.1,5.8,9.4,5.6,18.3
				l-0.8,61.8l0,0.7l9-8.3c4,4,11.1,8.2,19.2,8.2c13.9,0,28-11.6,28-33.9C500,160,485.5,148.3,471.8,148.3z M489.4,182.3
				c0,19.9-12.9,27.2-21.6,27.2c-6.6,0-11.5-3.3-14-5.4v-41.5c2.9-4.9,8-7.9,13.6-7.9C478,154.7,489.4,163.3,489.4,182.3z" class="st0"></path>
		</g>
	</g>
</g>
</svg>
